<svg width="34" height="18" viewBox="0 0 34 18" fill="none" xmlns="http://www.w3.org/2000/svg">
<path fill-rule="evenodd" clip-rule="evenodd" d="M8.23104 1.31839L1.31741 8.23201C0.893154 8.65627 0.893154 9.34412 1.31741 9.76838L8.23104 16.682C8.65529 17.1063 9.34315 17.1063 9.7674 16.682C10.1917 16.2577 10.1917 15.5699 9.7674 15.1456L4.70832 10.0866H27.0721C27.6721 10.0866 28.1585 9.60018 28.1585 9.00019C28.1585 8.40021 27.6721 7.91382 27.0721 7.91382H4.70832L9.7674 2.85475C10.1917 2.43049 10.1917 1.74264 9.7674 1.31839C9.34315 0.894132 8.65529 0.894132 8.23104 1.31839Z" fill="#2F8FFF"/>
<path fill-rule="evenodd" clip-rule="evenodd" d="M9.97953 1.10625C9.43812 0.564842 8.56032 0.564843 8.0189 1.10625L1.10528 8.01988C0.563866 8.56129 0.563866 9.4391 1.10528 9.98051L8.0189 16.8941C8.56032 17.4355 9.43812 17.4355 9.97953 16.8941C10.5209 16.3527 10.5209 15.4749 9.97953 14.9335L5.43259 10.3866H27.0721C27.8378 10.3866 28.4585 9.76587 28.4585 9.00019C28.4585 8.23452 27.8378 7.61382 27.0721 7.61382H5.43259L9.97953 3.06688C10.5209 2.52547 10.5209 1.64767 9.97953 1.10625ZM8.44317 1.53052C8.75027 1.22342 9.24817 1.22342 9.55527 1.53052C9.86237 1.83762 9.86237 2.33552 9.55527 2.64262L4.49619 7.70169C4.41039 7.78749 4.38473 7.91653 4.43116 8.02863C4.47759 8.14073 4.58699 8.21382 4.70832 8.21382H27.0721C27.5064 8.21382 27.8585 8.56589 27.8585 9.00019C27.8585 9.4345 27.5064 9.78657 27.0721 9.78657H4.70832C4.58699 9.78657 4.47759 9.85966 4.43116 9.97176C4.38473 10.0839 4.41039 10.2129 4.49619 10.2987L9.55527 15.3578C9.86237 15.6649 9.86237 16.1628 9.55527 16.4699C9.24817 16.777 8.75027 16.777 8.44317 16.4699L1.52954 9.55624C1.22245 9.24915 1.22245 8.75124 1.52954 8.44415L8.44317 1.53052Z" fill="#2F8FFF"/>
<path d="M31.4176 9.00052C31.4176 9.6005 31.904 10.0869 32.504 10.0869C33.104 10.0869 33.5904 9.6005 33.5904 9.00052C33.5904 8.40053 33.104 7.91415 32.504 7.91415C31.904 7.91415 31.4176 8.40053 31.4176 9.00052Z" fill="#2F8FFF"/>
<path fill-rule="evenodd" clip-rule="evenodd" d="M32.504 8.21415C32.9383 8.21415 33.2904 8.56622 33.2904 9.00052C33.2904 9.43482 32.9383 9.78689 32.504 9.78689C32.0697 9.78689 31.7176 9.43482 31.7176 9.00052C31.7176 8.56622 32.0697 8.21415 32.504 8.21415ZM33.8904 9.00052C33.8904 8.23485 33.2697 7.61415 32.504 7.61415C31.7383 7.61415 31.1176 8.23485 31.1176 9.00052C31.1176 9.76619 31.7383 10.3869 32.504 10.3869C33.2697 10.3869 33.8904 9.76619 33.8904 9.00052Z" fill="#2F8FFF"/>
</svg>
