<svg width="34" height="18" viewBox="0 0 34 18" fill="none" xmlns="http://www.w3.org/2000/svg">
<path fill-rule="evenodd" clip-rule="evenodd" d="M25.7673 1.31819L32.681 8.23182C33.1052 8.65607 33.1052 9.34393 32.681 9.76818L25.7673 16.6818C25.3431 17.1061 24.6552 17.1061 24.231 16.6818C23.8067 16.2576 23.8067 15.5697 24.231 15.1454L29.29 10.0864L6.92622 10.0864C6.32623 10.0864 5.83984 9.59999 5.83984 9C5.83984 8.40001 6.32623 7.91363 6.92622 7.91363L29.29 7.91363L24.231 2.85455C23.8067 2.4303 23.8067 1.74245 24.231 1.31819C24.6552 0.893936 25.3431 0.893936 25.7673 1.31819Z" fill="#2F8FFF"/>
<path fill-rule="evenodd" clip-rule="evenodd" d="M24.022 1.10625C24.5634 0.564842 25.4412 0.564843 25.9826 1.10625L32.8962 8.01988C33.4376 8.56129 33.4376 9.4391 32.8962 9.98051L25.9826 16.8941C25.4412 17.4355 24.5634 17.4355 24.022 16.8941C23.4805 16.3527 23.4805 15.4749 24.022 14.9335L28.5689 10.3866L6.92934 10.3866C6.16367 10.3866 5.54297 9.76587 5.54297 9.00019C5.54297 8.23452 6.16367 7.61382 6.92934 7.61382L28.5689 7.61382L24.022 3.06688C23.4805 2.52547 23.4805 1.64767 24.022 1.10625ZM25.5583 1.53052C25.2512 1.22342 24.7533 1.22342 24.4462 1.53052C24.1391 1.83762 24.1391 2.33552 24.4462 2.64262L29.5053 7.70169C29.5911 7.78749 29.6168 7.91653 29.5703 8.02863C29.5239 8.14073 29.4145 8.21382 29.2932 8.21382L6.92934 8.21382C6.49504 8.21382 6.14297 8.56589 6.14297 9.00019C6.14297 9.4345 6.49504 9.78657 6.92934 9.78657L29.2932 9.78657C29.4145 9.78657 29.5239 9.85966 29.5703 9.97176C29.6168 10.0839 29.5911 10.2129 29.5053 10.2987L24.4462 15.3578C24.1391 15.6649 24.1391 16.1628 24.4462 16.4699C24.7533 16.777 25.2512 16.777 25.5583 16.4699L32.4719 9.55624C32.779 9.24915 32.779 8.75124 32.4719 8.44415L25.5583 1.53052Z" fill="#2F8FFF"/>
<path d="M2.5829 9.00043C2.5829 9.60042 2.09651 10.0868 1.49653 10.0868C0.896541 10.0868 0.410156 9.60042 0.410156 9.00043C0.410156 8.40045 0.896541 7.91406 1.49653 7.91406C2.09651 7.91406 2.5829 8.40045 2.5829 9.00043Z" fill="#2F8FFF"/>
<path fill-rule="evenodd" clip-rule="evenodd" d="M1.49575 8.21426C1.06145 8.21426 0.709375 8.56633 0.709375 9.00063C0.709375 9.43493 1.06145 9.787 1.49575 9.787C1.93005 9.787 2.28212 9.43493 2.28212 9.00063C2.28212 8.56633 1.93005 8.21426 1.49575 8.21426ZM0.109375 9.00063C0.109375 8.23496 0.730075 7.61426 1.49575 7.61426C2.26142 7.61426 2.88212 8.23496 2.88212 9.00063C2.88212 9.7663 2.26142 10.387 1.49575 10.387C0.730075 10.387 0.109375 9.7663 0.109375 9.00063Z" fill="#2F8FFF"/>
</svg>
